PathFileType	4	(X/Y/Z)	OpenSim_Sub07_EMGBaseline_Magnet.trc
DataRate	CameraRate	NumFrames	NumMarkers	Units	OrigDataRate	OrigDataStartFrame	OrigNumFrames
100	100	37	8	m	100	5122	6828
Frame#	Time	torso_imu_offset_imu	pelvis_imu_offset_imu	tibia_r_imu_offset_imu	femur_r_imu_offset_imu	tibia_l_imu_offset_imu	femur_l_imu_offset_imu	toes_r_imu_offset_imu	toes_l_imu_offset_imu
				X1	Y1	Z1	X2	Y2	Z2	X3	Y3	Z3	X4	Y4	Z4	X5	Y5	Z5	X6	Y6	Z6	X7	Y7	Z7	X8		Y8	Z8	

5122	51.21000000	0.92944300	0.15112300	0.04126000	-0.73071300	0.13183600	-0.57055700	0.01709000	-0.79321300	0.18920900	-0.81469700	-0.25561500	-0.12841800	-0.60376000	0.51757800	0.19116200	-0.69995100	0.17480500	0.42407200	-0.65087900	-0.25585900	0.48730500	-0.71289100	-0.17602500	-0.38134800
5123	51.22000000	0.92504900	0.15332000	0.04345700	-0.73315400	0.13598600	-0.57299800	0.01928700	-0.79736300	0.19824200	-0.81958000	-0.23925800	-0.11523400	-0.59057600	0.52441400	0.18603500	-0.69995100	0.18139600	0.42187500	-0.64599600	-0.28833000	0.46704100	-0.71752900	-0.17382800	-0.38134800
5124	51.23000000	0.92529300	0.14697300	0.04150400	-0.72656200	0.13598600	-0.56835900	0.01098600	-0.79321300	0.20483400	-0.83056600	-0.22265600	-0.11132800	-0.59082000	0.52661100	0.18139600	-0.69824200	0.19213900	0.42407200	-0.64111300	-0.31054700	0.44238300	-0.71948200	-0.18066400	-0.38134800
5125	51.24000000	0.92724600	0.14917000	0.04345700	-0.73291000	0.13378900	-0.57275400	0.01709000	-0.79126000	0.20459000	-0.83081100	-0.21240200	-0.10717800	-0.59082000	0.52880900	0.18823200	-0.69409200	0.19873000	0.41943400	-0.64257800	-0.33496100	0.41162100	-0.72387700	-0.18286100	-0.37231400
5126	51.25000000	0.92919900	0.15747100	0.04321300	-0.72705100	0.14648400	-0.57104500	0.00463900	-0.79321300	0.18896500	-0.83740200	-0.19799800	-0.09863300	-0.58862300	0.53320300	0.18798800	-0.68994100	0.20752000	0.41699200	-0.64624000	-0.35327100	0.38671900	-0.71948200	-0.18066400	-0.37231400
5127	51.26000000	0.92285200	0.15112300	0.05004900	-0.72705100	0.14648400	-0.57104500	0.00268600	-0.79736300	0.17138700	-0.84204100	-0.18969700	-0.08984400	-0.58447300	0.53979500	0.19189500	-0.68798800	0.21826200	0.42822300	-0.64770500	-0.37158200	0.35156200	-0.72607400	-0.18505900	-0.37011700
5128	51.27000000	0.92480500	0.15747100	0.04321300	-0.72924800	0.15283200	-0.56884800	-0.00756800	-0.80151400	0.14453100	-0.84668000	-0.17114300	-0.08813500	-0.58203100	0.53979500	0.19189500	-0.68603500	0.22265600	0.42578100	-0.64331100	-0.37939500	0.32690400	-0.73046900	-0.18286100	-0.36328100
5129	51.28000000	0.92700200	0.15747100	0.05200200	-0.73120100	0.14868200	-0.57812500	-0.02002000	-0.79736300	0.12426800	-0.84716800	-0.15869100	-0.07959000	-0.57788100	0.54638700	0.19384800	-0.68847700	0.22924800	0.43261700	-0.64697300	-0.39160200	0.30200200	-0.72143600	-0.18725600	-0.36108400
5130	51.29000000	0.92504900	0.15527300	0.04541000	-0.72729500	0.15918000	-0.57373000	-0.02832000	-0.80346700	0.11108400	-0.84716800	-0.15258800	-0.07519500	-0.57568400	0.54858400	0.18920900	-0.68652300	0.23803700	0.42797900	-0.64917000	-0.38745100	0.28735400	-0.72583000	-0.18750000	-0.35449200
5131	51.30000000	0.92260700	0.15966800	0.04736300	-0.72094700	0.16137700	-0.57861300	-0.04272500	-0.80346700	0.09326200	-0.85839800	-0.13183600	-0.06445300	-0.57788100	0.54858400	0.19824200	-0.68237300	0.24243200	0.43237300	-0.65332000	-0.38940400	0.26025400	-0.72802700	-0.18969700	-0.34765600
5132	51.31000000	0.92260700	0.16162100	0.04956100	-0.72094700	0.16333000	-0.58325200	-0.06787100	-0.80151400	0.07959000	-0.85644500	-0.12353500	-0.06713900	-0.57153300	0.56176800	0.19067400	-0.67797900	0.24243200	0.43676800	-0.66381800	-0.38134800	0.24145500	-0.72998000	-0.19848600	-0.34985400
5133	51.32000000	0.92480500	0.16162100	0.05175800	-0.72119100	0.16748000	-0.57885700	-0.08862300	-0.80151400	0.06835900	-0.86108400	-0.11328100	-0.06738300	-0.57153300	0.55957000	0.19970700	-0.67822300	0.25097700	0.43676800	-0.66796900	-0.38330100	0.21630900	-0.72338900	-0.19628900	-0.34301800
5134	51.33000000	0.92675800	0.16381800	0.05175800	-0.71899400	0.16772500	-0.58105500	-0.11181600	-0.79931600	0.06835900	-0.86132800	-0.10302700	-0.06567400	-0.56738300	0.56616200	0.19043000	-0.66943400	0.25341800	0.43457000	-0.67871100	-0.37304700	0.18505900	-0.72998000	-0.19848600	-0.34082000
5135	51.34000000	0.92260700	0.16381800	0.05615200	-0.71704100	0.17382800	-0.57910200	-0.13110400	-0.78906200	0.07910200	-0.86596700	-0.09057600	-0.06152300	-0.55835000	0.56396500	0.18603500	-0.66748000	0.26196300	0.44116200	-0.68505900	-0.36499000	0.15161100	-0.72729500	-0.20727500	-0.33862300
5136	51.35000000	0.92480500	0.15747100	0.05859400	-0.71484400	0.17187500	-0.58129900	-0.16455100	-0.78491200	0.09448200	-0.86596700	-0.08642600	-0.06152300	-0.56543000	0.57714800	0.18774400	-0.65869100	0.26001000	0.44116200	-0.69751000	-0.36499000	0.12426800	-0.72045900	-0.21167000	-0.33618200
5137	51.36000000	0.92480500	0.16381800	0.05395500	-0.71704100	0.17602500	-0.58593800	-0.18774400	-0.78076200	0.10791000	-0.86840800	-0.07812500	-0.05957000	-0.55639600	0.57275400	0.18554700	-0.66577100	0.27294900	0.44555700	-0.70605500	-0.35888700	0.08471700	-0.72265600	-0.21167000	-0.33618200
5138	51.37000000	0.92456100	0.16601600	0.06274400	-0.71069300	0.17602500	-0.59057600	-0.21337900	-0.76416000	0.11621100	-0.87280300	-0.07202100	-0.05761700	-0.55859400	0.57275400	0.18335000	-0.65918000	0.27734400	0.45214800	-0.70605500	-0.35449200	0.04907200	-0.72241200	-0.21826200	-0.33618200
5139	51.38000000	0.92260700	0.16601600	0.06274400	-0.71069300	0.18042000	-0.59326200	-0.24902300	-0.76001000	0.13598600	-0.87304700	-0.05957000	-0.05346700	-0.55200200	0.57714800	0.18750000	-0.65283200	0.28393600	0.44751000	-0.70800800	-0.35839800	0.01806600	-0.72241200	-0.22045900	-0.33178700
5140	51.39000000	0.92236300	0.17236300	0.06225600	-0.70629900	0.17822300	-0.59301800	-0.27490200	-0.73925800	0.13745100	-0.87329100	-0.05127000	-0.05371100	-0.55444300	0.58154300	0.18286100	-0.65283200	0.28613300	0.44531200	-0.70776400	-0.35815400	-0.01953100	-0.72021500	-0.22265600	-0.32714800
5141	51.40000000	0.92431600	0.17236300	0.06250000	-0.70654300	0.18676800	-0.59350600	-0.31323200	-0.71850600	0.15454100	-0.86914100	-0.04907200	-0.05151400	-0.55444300	0.58154300	0.18286100	-0.64868200	0.29272500	0.44751000	-0.70996100	-0.35400400	-0.05908200	-0.71777300	-0.22705100	-0.32495100
5142	51.41000000	0.92236300	0.17016600	0.06469700	-0.69995100	0.18261700	-0.60253900	-0.34741200	-0.69970700	0.16723600	-0.87133800	-0.05127000	-0.04931600	-0.55224600	0.58593800	0.17578100	-0.64892600	0.29492200	0.45654300	-0.71215800	-0.35180700	-0.09033200	-0.71972700	-0.23144500	-0.32495100
5143	51.42000000	0.92016600	0.16796900	0.06689500	-0.70434600	0.18261700	-0.60253900	-0.37500000	-0.68530300	0.17797900	-0.87158200	-0.04296900	-0.04272500	-0.55004900	0.58813500	0.17797900	-0.64697300	0.30566400	0.45410200	-0.70605500	-0.34545900	-0.12793000	-0.72192400	-0.23144500	-0.32959000
5144	51.43000000	0.92260700	0.16601600	0.06494100	-0.70214800	0.18457000	-0.60034200	-0.40698200	-0.66845700	0.16845700	-0.87817400	-0.03466800	-0.04077100	-0.55224600	0.58813500	0.17138700	-0.63598600	0.30810500	0.45629900	-0.69970700	-0.34326200	-0.16333000	-0.71752900	-0.23364300	-0.32714800
5145	51.44000000	0.92236300	0.16796900	0.06909200	-0.70214800	0.18457000	-0.60253900	-0.44091800	-0.65405300	0.15454100	-0.87377900	-0.03881800	-0.04980500	-0.54809600	0.59692400	0.18188500	-0.63623000	0.31689500	0.45166000	-0.69140600	-0.33886700	-0.19873000	-0.71948200	-0.23584000	-0.33178700
5146	51.45000000	0.92016600	0.17236300	0.07104500	-0.69775400	0.18261700	-0.60717800	-0.46875000	-0.63110400	0.13354500	-0.87182600	-0.03466800	-0.04296900	-0.54150400	0.59692400	0.17065400	-0.63183600	0.31469700	0.46069300	-0.68530300	-0.33252000	-0.22387700	-0.72192400	-0.23584000	-0.32714800
5147	51.46000000	0.92211900	0.17651400	0.07104500	-0.69799800	0.18481400	-0.60253900	-0.50268600	-0.61645500	0.10620100	-0.87377900	-0.03686500	-0.04736300	-0.53710900	0.60351600	0.17480500	-0.63452100	0.32543900	0.44702100	-0.67480500	-0.33007800	-0.25927700	-0.72851600	-0.23388700	-0.32495100
5148	51.47000000	0.92211900	0.17651400	0.07104500	-0.69360400	0.18261700	-0.60717800	-0.52002000	-0.59960900	0.08325200	-0.87768600	-0.04516600	-0.04272500	-0.53466800	0.59912100	0.17504900	-0.62573200	0.32983400	0.46289100	-0.65820300	-0.32763700	-0.29248000	-0.71728500	-0.24023400	-0.32714800
5149	51.48000000	0.91796900	0.17211900	0.07543900	-0.69140600	0.18261700	-0.60961900	-0.54785200	-0.57885700	0.06005900	-0.87133800	-0.04711900	-0.04931600	-0.52832000	0.60791000	0.17895500	-0.62133800	0.33007800	0.46289100	-0.64794900	-0.32324200	-0.32373000	-0.72631800	-0.23364300	-0.33178700
5150	51.49000000	0.91577100	0.17431600	0.06884800	-0.69799800	0.18481400	-0.61206100	-0.56933600	-0.56005900	0.04150400	-0.86889600	-0.06152300	-0.05346700	-0.53051800	0.60791000	0.17456100	-0.61694300	0.33007800	0.46728500	-0.62915000	-0.31860400	-0.35498000	-0.72192400	-0.23584000	-0.32714800
5151	51.50000000	0.92016600	0.17431600	0.07324200	-0.69995100	0.18042000	-0.60473600	-0.59326200	-0.53491200	0.02734400	-0.86865200	-0.06982400	-0.05542000	-0.52392600	0.61230500	0.17651400	-0.61499000	0.34106400	0.47387700	-0.61669900	-0.31616200	-0.38623000	-0.72412100	-0.23584000	-0.33178700
5152	51.51000000	0.91381800	0.17211900	0.07763700	-0.69995100	0.18481400	-0.60961900	-0.61059600	-0.51611300	0.01977500	-0.86596700	-0.08837900	-0.06152300	-0.52636700	0.61889600	0.18286100	-0.60620100	0.34106400	0.47387700	-0.60449200	-0.30981400	-0.41943400	-0.72656200	-0.23144500	-0.33178700
5153	51.52000000	0.91992200	0.17846700	0.08178700	-0.69335900	0.17846700	-0.60693400	-0.62573200	-0.49951200	0.00805700	-0.87011700	-0.09277300	-0.06152300	-0.52172900	0.61669900	0.17846700	-0.60424800	0.34545900	0.48046900	-0.58374000	-0.30127000	-0.44238300	-0.73095700	-0.23168900	-0.32959000
5154	51.53000000	0.92016600	0.17236300	0.08667000	-0.69360400	0.18261700	-0.60961900	-0.64086900	-0.48071300	-0.00146500	-0.86743200	-0.10717800	-0.06323200	-0.51538100	0.62548800	0.17797900	-0.60424800	0.34545900	0.47143600	-0.57568400	-0.29272500	-0.46337900	-0.73535200	-0.23168900	-0.32714800
5155	51.54000000	0.92431600	0.17651400	0.07983400	-0.69995100	0.18066400	-0.61401400	-0.65429700	-0.45971700	-0.00439500	-0.86108400	-0.11328100	-0.06054700	-0.50854500	0.62548800	0.17993200	-0.59765600	0.34545900	0.47607400	-0.56958000	-0.28442400	-0.48852500	-0.73535200	-0.23608400	-0.32055700
5156	51.55000000	0.91992200	0.17651400	0.08642600	-0.69995100	0.17846700	-0.60473600	-0.66308600	-0.44506800	-0.00488300	-0.85864300	-0.12353500	-0.06933600	-0.50439500	0.63452100	0.17065400	-0.59790000	0.34985400	0.47143600	-0.55712900	-0.27612300	-0.49902300	-0.73315400	-0.23168900	-0.32055700
5157	51.56000000	0.91577100	0.17211900	0.07983400	-0.69970700	0.17431600	-0.60693400	-0.67187500	-0.43042000	-0.00781200	-0.85644500	-0.12573200	-0.06005900	-0.50024400	0.63891600	0.16821300	-0.60229500	0.35424800	0.48486300	-0.54907200	-0.26757800	-0.51977500	-0.73754900	-0.23608400	-0.32275400
5158	51.57000000	0.92431600	0.17431600	0.08422900	-0.70214800	0.17846700	-0.60229500	-0.67846700	-0.42431600	-0.01025400	-0.85644500	-0.12988300	-0.05322300	-0.49804700	0.64111300	0.16796900	-0.60009800	0.35424800	0.47583000	-0.54711900	-0.25927700	-0.53247100	-0.74194300	-0.23608400	-0.32275400
